<svg xmlns="http://www.w3.org/2000/svg" xmlns:xlink="http://www.w3.org/1999/xlink" width="96mm" height="37mm" viewBox="0 0 96 37"><defs><linearGradient id="b"><stop offset="0" style="stop-color:#2794c2;stop-opacity:1"/><stop style="stop-color:#007fd4;stop-opacity:1" offset=".697"/><stop offset="1" style="stop-color:#012d69;stop-opacity:1"/></linearGradient><linearGradient id="a"><stop style="stop-color:#0ff;stop-opacity:1" offset="0"/><stop offset=".697" style="stop-color:#007fd4;stop-opacity:1"/><stop style="stop-color:#00f;stop-opacity:1" offset="1"/></linearGradient><linearGradient xlink:href="#b" id="c" x1="13.33" y1="107.441" x2="13.18" y2="90.674" gradientUnits="userSpaceOnUse" gradientTransform="translate(6.785 172.985) scale(1.09592)"/><radialGradient xlink:href="#a" id="d" cx="72.59" cy="77.956" fx="72.59" fy="77.956" r="5.078" gradientTransform="matrix(1.86037 .00837 -.0112 2.4907 -112.961 86.713)" gradientUnits="userSpaceOnUse"/></defs><path style="fill:#692510;fill-opacity:1;stroke:#692510;stroke-width:0;stroke-linecap:round;stroke-linejoin:miter;stroke-miterlimit:4;stroke-dasharray:none;stroke-opacity:1" d="M26.063 287.012c-.996 2.676-5.726 4.885-9.237.958-4.836-5.827-1.896-15.332 2.69-19.41-.603.349-4.675 1.562-6.76 9.682-.793-3.024-.732-6.346-.093-9.87-1.653 3.112-1.894 6.635-2.081 10.174-2.623-2.154-3.968-2.428-5.59-3.11 2.816 1.68 5.016 4.16 5.45 5.776 3.919 13.99 14.184 11.726 15.621 5.8z" transform="translate(0 -260)"/><path style="fill:#a5c639;fill-opacity:1;stroke:#a5c639;stroke-width:.26458332px;stroke-linecap:butt;stroke-linejoin:miter;stroke-opacity:1" d="M18.79 267.999c2.973-1.015 3.622-2.938 2.292-5.636-2.923 1.17-3.354 3.158-2.292 5.636z" transform="translate(0 -260)"/><path style="fill:#a5c639;fill-opacity:1;stroke:#a5c639;stroke-width:.20426677px;stroke-linecap:butt;stroke-linejoin:miter;stroke-opacity:1" d="M19.945 268.935c1.832 1.68 3.43 1.5 4.828-.265-1.922-1.597-3.484-1.25-4.828.265z" transform="translate(0 -260)"/><path style="fill:#a5c639;fill-opacity:1;stroke:#a5c639;stroke-width:.21177697px;stroke-linecap:butt;stroke-linejoin:miter;stroke-opacity:1" d="M12.005 268.706c.246-2.586-.9-3.737-3.227-3.667-.12 2.602 1.14 3.612 3.227 3.667z" transform="translate(0 -260)"/><path style="fill:#a5c639;fill-opacity:1;stroke:#a5c639;stroke-width:.17788775px;stroke-linecap:butt;stroke-linejoin:miter;stroke-opacity:1" d="M6.903 275.083c.763-1.775-.095-2.78-2.33-3.13-.646 1.807.35 2.733 2.33 3.13z" transform="translate(0 -260)"/><path style="fill:#a5c639;fill-opacity:1;stroke:#a5c639;stroke-width:.21858384px;stroke-linecap:butt;stroke-linejoin:miter;stroke-opacity:1" d="M6.337 276.809c-2.217-1.38-3.817-.817-4.89 1.4 2.292 1.268 3.82.534 4.89-1.4z" transform="translate(0 -260)"/><path style="fill:#a5c639;fill-opacity:1;stroke:#a5c639;stroke-width:.11749516px;stroke-linecap:butt;stroke-linejoin:miter;stroke-opacity:1" d="M8.811 273.86c1.441-.032 1.987-.736 1.77-2.014-1.44.102-1.9.86-1.77 2.013z" transform="translate(0 -260)"/><path style="fill:#a5c639;fill-opacity:1;stroke:#a5c639;stroke-width:.09872922px;stroke-linecap:butt;stroke-linejoin:miter;stroke-opacity:1" d="M16.89 273.945c1.042-.536 1.176-1.282.54-2.206-1.016.591-1.068 1.348-.54 2.206z" transform="translate(0 -260)"/><path style="fill:#a5c639;fill-opacity:1;stroke:#a5c639;stroke-width:.07562663px;stroke-linecap:butt;stroke-linejoin:miter;stroke-opacity:1" d="M13.059 270.078c.807.393 1.326.133 1.6-.682-.83-.35-1.317-.034-1.6.682z" transform="translate(0 -260)"/><path style="fill:#a5c639;fill-opacity:1;stroke:#a5c639;stroke-width:.06411603px;stroke-linecap:butt;stroke-linejoin:miter;stroke-opacity:1" d="M15.12 270.99c.76.05 1.083-.322 1.035-1.049-.763-.009-1.044.396-1.035 1.05z" transform="translate(0 -260)"/><path style="fill:#a5c639;fill-opacity:1;stroke:#a5c639;stroke-width:.12369243px;stroke-linecap:butt;stroke-linejoin:miter;stroke-opacity:1" d="M13.384 268.417c1.278.724 2.152.354 2.682-.949-1.317-.658-2.145-.192-2.682.95z" transform="translate(0 -260)"/><path style="fill:#a5c639;fill-opacity:1;stroke:#a5c639;stroke-width:.07895305px;stroke-linecap:butt;stroke-linejoin:miter;stroke-opacity:1" d="M16.565 267.89c.318.882.895 1.065 1.693.655-.364-.866-.96-.985-1.693-.655z" transform="translate(0 -260)"/><path style="fill:#64b844;fill-opacity:1;stroke:#64b743;stroke-width:.20979764px;stroke-linecap:butt;stroke-linejoin:miter;stroke-opacity:1" d="M12.982 267.271c2.174-.667 2.752-2.308 1.972-4.778-2.148.808-2.576 2.522-1.972 4.778z" transform="translate(0 -260)"/><path style="fill:#64b844;fill-opacity:1;stroke:#64b743;stroke-width:.09557724px;stroke-linecap:butt;stroke-linejoin:miter;stroke-opacity:1" d="M9.485 276.641c.43-1.05.062-1.683-.988-1.964-.377 1.073.061 1.664.988 1.964z" transform="translate(0 -260)"/><path style="fill:#64b844;fill-opacity:1;stroke:#64b743;stroke-width:.10059284px;stroke-linecap:butt;stroke-linejoin:miter;stroke-opacity:1" d="M17.702 267.219c.372-1.135-.064-1.772-1.187-1.985-.313 1.155.191 1.74 1.187 1.985z" transform="translate(0 -260)"/><path style="fill:#64b844;fill-opacity:1;stroke:#64b743;stroke-width:.09623427px;stroke-linecap:butt;stroke-linejoin:miter;stroke-opacity:1" d="M21.59 266.962c1.102.304 1.691-.14 1.845-1.224-1.118-.247-1.656.261-1.844 1.224z" transform="translate(0 -260)"/><path style="fill:#64b844;fill-opacity:1;stroke:#64b743;stroke-width:.2228656px;stroke-linecap:butt;stroke-linejoin:miter;stroke-opacity:1" d="M11.042 270.118c-1.677-2.047-3.386-1.99-5.123-.146 1.786 1.96 3.481 1.715 5.123.146z" transform="translate(0 -260)"/><path style="fill:#64b844;fill-opacity:1;stroke:#64b743;stroke-width:.1253804px;stroke-linecap:butt;stroke-linejoin:miter;stroke-opacity:1" d="M4.162 275.154c-.603-1.36-1.539-1.586-2.756-.845.675 1.33 1.631 1.45 2.756.845z" transform="translate(0 -260)"/><path style="fill:#64b844;fill-opacity:1;stroke:#64b743;stroke-width:.12369243px;stroke-linecap:butt;stroke-linejoin:miter;stroke-opacity:1" d="M6.72 280.15c1.234-.797 1.311-1.743.404-2.816-1.194.86-1.166 1.81-.404 2.815zM13.279 273.338c1.376-.512 1.654-1.42.998-2.663-1.35.585-1.527 1.519-.998 2.663z" transform="translate(0 -260)"/><path style="fill:#64b844;fill-opacity:1;stroke:#64b743;stroke-width:.16146022px;stroke-linecap:butt;stroke-linejoin:miter;stroke-opacity:1" d="M19.518 273.262c1.31-1.399 1.108-2.621-.383-3.693-1.238 1.47-.9 2.664.383 3.693z" transform="translate(0 -260)"/><text xml:space="preserve" style="font-style:normal;font-weight:400;font-size:10.58333302px;line-height:1.25;font-family:sans-serif;letter-spacing:0;word-spacing:0;fill:#000;fill-opacity:1;stroke:none;stroke-width:.26458332" x="107.619" y="69.723" transform="translate(0 -260)"/><text xml:space="preserve" style="font-style:normal;font-weight:400;font-size:4.67172718px;line-height:1.25;font-family:sans-serif;letter-spacing:0;word-spacing:0;fill:#000;fill-opacity:1;stroke:none;stroke-width:.3503795" x="28.211" y="289.645" transform="translate(0 -260)"><tspan x="28.211" y="289.645" style="font-style:normal;font-variant:normal;font-weight:700;font-stretch:normal;font-size:3.7373817px;font-family:Roboto;-inkscape-font-specification:'Roboto Bold';stroke-width:.3503795">CONSULTORIA E GESTÃO AMBIENTAL</tspan></text><text xml:space="preserve" style="font-style:normal;font-weight:400;font-size:11.69058895px;line-height:1.25;font-family:sans-serif;letter-spacing:0;word-spacing:0;fill:#000;fill-opacity:1;stroke:none;stroke-width:.8767941" x="28.211" y="285.037" transform="translate(0 -260)"><tspan x="28.211" y="285.037" style="font-style:normal;font-variant:normal;font-weight:700;font-stretch:normal;font-family:Roboto;-inkscape-font-specification:'Roboto Bold';stroke-width:.8767941">Daiana Silva</tspan></text><path style="opacity:1;fill:url(#c);fill-opacity:1;stroke:none;stroke-width:.43799999;stroke-linecap:square;stroke-linejoin:round;stroke-miterlimit:4;stroke-dasharray:none;stroke-opacity:1;paint-order:stroke fill markers" d="M21.23 272.356c-.03 2.496-2.46 5.853-4.649 8.54a5.565 5.565 0 1 0 9.258 0c-1.84-2.621-4.56-5.559-4.61-8.54z" transform="translate(0 -260)"/><path style="opacity:1;fill:url(#d);fill-opacity:1;stroke:none;stroke-width:3;stroke-linecap:square;stroke-linejoin:bevel;stroke-miterlimit:4;stroke-dasharray:none;stroke-opacity:1;paint-order:normal" d="M21.245 273.875c-.028 2.34-2.323 4.869-4.374 7.388a5.217 5.217 0 1 0 8.678 0c-1.724-2.458-4.258-4.593-4.304-7.388z" transform="translate(0 -260)"/><path style="fill:#004383;fill-opacity:1;stroke:none;stroke-width:.28357208px;stroke-linecap:butt;stroke-linejoin:miter;stroke-opacity:1" d="m23.746 280.086.09.074c1.918 1.635 3.26 5.48 1.011 6.43-1.91.406.893-3.036-1.1-6.504z" transform="translate(0 -260)"/><path style="fill:#fff;stroke:none;stroke-width:.25903076px;stroke-linecap:butt;stroke-linejoin:miter;stroke-opacity:1" d="M23.874 280.247c1.75 1.488 2.818 5.167 1.008 6.113-1.735.55.82-2.871-1.008-6.113z" transform="translate(0 -260)"/></svg>