<?xml version="1.0" encoding="UTF-8" standalone="no"?>
<svg
   xmlns:dc="http://purl.org/dc/elements/1.1/"
   xmlns:cc="http://creativecommons.org/ns#"
   xmlns:rdf="http://www.w3.org/1999/02/22-rdf-syntax-ns#"
   xmlns:svg="http://www.w3.org/2000/svg"
   xmlns="http://www.w3.org/2000/svg"
   xmlns:xlink="http://www.w3.org/1999/xlink"
   id="svg8"
   version="1.1"
   viewBox="0 0 96 37"
   height="37mm"
   width="96mm">
  <defs
     id="defs2">
    <linearGradient
       id="linearGradient5084">
      <stop
         style="stop-color:#2794c2;stop-opacity:1"
         offset="0"
         id="stop5078" />
      <stop
         id="stop5080"
         offset="0.69662964"
         style="stop-color:#007fd4;stop-opacity:1" />
      <stop
         style="stop-color:#012d69;stop-opacity:1"
         offset="1"
         id="stop5082" />
    </linearGradient>
    <linearGradient
       id="linearGradient970">
      <stop
         id="stop964"
         offset="0"
         style="stop-color:#00ffff;stop-opacity:1" />
      <stop
         style="stop-color:#007fd4;stop-opacity:1"
         offset="0.69662964"
         id="stop966" />
      <stop
         id="stop968"
         offset="1"
         style="stop-color:#0000ff;stop-opacity:1" />
    </linearGradient>
    <radialGradient
       gradientUnits="userSpaceOnUse"
       gradientTransform="matrix(1.8603714,0.0083719,-0.01120845,2.4906998,-112.96121,86.71301)"
       r="5.0779839"
       fy="77.9561"
       fx="72.590454"
       cy="77.9561"
       cx="72.590454"
       id="radialGradient2566-4"
       xlink:href="#linearGradient970" />
    <linearGradient
       gradientTransform="matrix(1.0959219,0,0,1.0959219,6.7845657,172.98509)"
       gradientUnits="userSpaceOnUse"
       y2="90.673645"
       x2="13.180334"
       y1="107.44066"
       x1="13.329769"
       id="linearGradient1373"
       xlink:href="#linearGradient5084" />
  </defs>
  <metadata
     id="metadata5">
    <rdf:RDF>
      <cc:Work
         rdf:about="">
        <dc:format>image/svg+xml</dc:format>
        <dc:type
           rdf:resource="http://purl.org/dc/dcmitype/StillImage" />
        <dc:title></dc:title>
      </cc:Work>
    </rdf:RDF>
  </metadata>
  <g
     transform="translate(0,-260)"
     id="layer1">
    <text
       id="text1260"
       y="69.722916"
       x="107.61927"
       style="font-style:normal;font-weight:normal;font-size:10.58333302px;line-height:1.25;font-family:sans-serif;letter-spacing:0px;word-spacing:0px;fill:#000000;fill-opacity:1;stroke:none;stroke-width:0.26458332"
       xml:space="preserve"><tspan
         style="stroke-width:0.26458332"
         y="79.255898"
         x="107.61927"
         id="tspan1258" /></text>
    <g
       id="g890">
      <path
         style="fill:#692510;fill-opacity:1;stroke:#692510;stroke-width:0;stroke-linecap:round;stroke-linejoin:miter;stroke-miterlimit:4;stroke-dasharray:none;stroke-opacity:1"
         d="m 26.063409,287.01165 c -0.995962,2.67603 -5.726596,4.88543 -9.237504,0.95882 -4.83614,-5.82728 -1.896094,-15.33244 2.6894,-19.41043 -0.60245,0.34876 -4.674428,1.56226 -6.758578,9.68183 -0.793938,-3.02434 -0.732707,-6.34612 -0.09354,-9.86892 -1.652729,3.11129 -1.894686,6.63405 -2.081364,10.17294 -2.6227673,-2.15395 -3.9674103,-2.42831 -5.5892724,-3.11035 2.8153961,1.68094 5.0157224,4.1612 5.4489564,5.77636 3.919084,13.99062 14.184266,11.7261 15.621902,5.79975 z"
         id="path1004" />
      <path
         style="fill:#a5c639;fill-opacity:1;stroke:#a5c639;stroke-width:0.26458332px;stroke-linecap:butt;stroke-linejoin:miter;stroke-opacity:1"
         d="m 18.790337,267.99877 c 2.972911,-1.01431 3.621326,-2.93819 2.291837,-5.63605 -2.922687,1.17035 -3.35458,3.15798 -2.291837,5.63605 z"
         id="path1030" />
      <path
         style="fill:#a5c639;fill-opacity:1;stroke:#a5c639;stroke-width:0.20426677px;stroke-linecap:butt;stroke-linejoin:miter;stroke-opacity:1"
         d="m 19.944905,268.93537 c 1.831658,1.68054 3.429516,1.49941 4.828442,-0.26582 -1.922597,-1.59644 -3.483914,-1.24864 -4.828442,0.26582 z"
         id="path1030-3" />
      <path
         style="fill:#a5c639;fill-opacity:1;stroke:#a5c639;stroke-width:0.21177697px;stroke-linecap:butt;stroke-linejoin:miter;stroke-opacity:1"
         d="m 12.005373,268.70592 c 0.245236,-2.58606 -0.899623,-3.73719 -3.2273083,-3.66737 -0.11921,2.60208 1.140369,3.61233 3.2273083,3.66737 z"
         id="path1030-6" />
      <path
         style="fill:#a5c639;fill-opacity:1;stroke:#a5c639;stroke-width:0.17788775px;stroke-linecap:butt;stroke-linejoin:miter;stroke-opacity:1"
         d="m 6.9033247,275.08327 c 0.762206,-1.77482 -0.09521,-2.78026 -2.3307541,-3.13104 -0.645214,1.80773 0.350453,2.73388 2.3307541,3.13104 z"
         id="path1030-7" />
      <path
         style="fill:#a5c639;fill-opacity:1;stroke:#a5c639;stroke-width:0.21858384px;stroke-linecap:butt;stroke-linejoin:miter;stroke-opacity:1"
         d="m 6.3366137,276.80857 c -2.2168581,-1.37932 -3.8163251,-0.81609 -4.8904581,1.40005 2.292908,1.26814 3.821117,0.53461 4.8904581,-1.40005 z"
         id="path1030-5" />
      <path
         style="fill:#a5c639;fill-opacity:1;stroke:#a5c639;stroke-width:0.11749516px;stroke-linecap:butt;stroke-linejoin:miter;stroke-opacity:1"
         d="m 8.811209,273.85911 c 1.441059,-0.0308 1.986454,-0.73514 1.769732,-2.01262 -1.440219,0.10123 -1.8993373,0.85972 -1.769732,2.01262 z"
         id="path1030-35" />
      <path
         style="fill:#a5c639;fill-opacity:1;stroke:#a5c639;stroke-width:0.09872922px;stroke-linecap:butt;stroke-linejoin:miter;stroke-opacity:1"
         d="m 16.889251,273.94456 c 1.042396,-0.53601 1.177225,-1.28149 0.539809,-2.20521 -1.015375,0.59088 -1.066805,1.34813 -0.539809,2.20521 z"
         id="path1030-1" />
      <path
         style="fill:#a5c639;fill-opacity:1;stroke:#a5c639;stroke-width:0.07562663px;stroke-linecap:butt;stroke-linejoin:miter;stroke-opacity:1"
         d="m 13.0588,270.0783 c 0.807412,0.39271 1.326302,0.13288 1.599688,-0.68217 -0.828638,-0.35094 -1.316428,-0.0346 -1.599688,0.68217 z"
         id="path1030-2" />
      <path
         style="fill:#a5c639;fill-opacity:1;stroke:#a5c639;stroke-width:0.06411603px;stroke-linecap:butt;stroke-linejoin:miter;stroke-opacity:1"
         d="m 15.1196,270.99077 c 0.759656,0.0484 1.083134,-0.32229 1.035469,-1.04957 -0.762872,-0.009 -1.043777,0.39622 -1.035469,1.04957 z"
         id="path1030-2-7" />
      <path
         style="fill:#a5c639;fill-opacity:1;stroke:#a5c639;stroke-width:0.12369243px;stroke-linecap:butt;stroke-linejoin:miter;stroke-opacity:1"
         d="m 13.38446,268.41724 c 1.277522,0.72418 2.151271,0.35349 2.681448,-0.94879 -1.316468,-0.65817 -2.145274,-0.19202 -2.681448,0.94879 z"
         id="path1030-2-0" />
      <path
         style="fill:#a5c639;fill-opacity:1;stroke:#a5c639;stroke-width:0.07895305px;stroke-linecap:butt;stroke-linejoin:miter;stroke-opacity:1"
         d="m 16.56483,267.88996 c 0.317916,0.88178 0.895266,1.06535 1.693362,0.65481 -0.364216,-0.866 -0.959472,-0.98463 -1.693362,-0.65481 z"
         id="path1030-2-0-9" />
      <path
         style="fill:#64b844;fill-opacity:1;stroke:#64b743;stroke-width:0.20979764px;stroke-linecap:butt;stroke-linejoin:miter;stroke-opacity:1"
         d="m 12.982343,267.27138 c 2.174137,-0.66728 2.751974,-2.30849 1.97152,-4.77841 -2.147947,0.80814 -2.575809,2.52164 -1.97152,4.77841 z"
         id="path1030-2-0-3" />
      <path
         style="fill:#64b844;fill-opacity:1;stroke:#64b743;stroke-width:0.09557724px;stroke-linecap:butt;stroke-linejoin:miter;stroke-opacity:1"
         d="m 9.484622,276.64106 c 0.4312827,-1.04954 0.06241,-1.68342 -0.9873193,-1.9636 -0.376913,1.07302 0.06079,1.66318 0.9873193,1.9636 z"
         id="path1030-2-0-3-7" />
      <path
         style="fill:#64b844;fill-opacity:1;stroke:#64b743;stroke-width:0.10059284px;stroke-linecap:butt;stroke-linejoin:miter;stroke-opacity:1"
         d="m 17.701901,267.21897 c 0.372249,-1.13476 -0.06354,-1.77184 -1.186905,-1.98545 -0.313379,1.15521 0.191317,1.74114 1.186905,1.98545 z"
         id="path1030-2-0-3-9" />
      <path
         style="fill:#64b844;fill-opacity:1;stroke:#64b743;stroke-width:0.09623427px;stroke-linecap:butt;stroke-linejoin:miter;stroke-opacity:1"
         d="m 21.590707,266.96174 c 1.10114,0.30467 1.690336,-0.14045 1.843921,-1.22356 -1.118037,-0.24749 -1.655246,0.26117 -1.843921,1.22356 z"
         id="path1030-2-0-3-2" />
      <path
         style="fill:#64b844;fill-opacity:1;stroke:#64b743;stroke-width:0.2228656px;stroke-linecap:butt;stroke-linejoin:miter;stroke-opacity:1"
         d="m 11.041895,270.11791 c -1.677179,-2.04643 -3.3863753,-1.99055 -5.1228133,-0.14582 1.785478,1.96077 3.4811073,1.71525 5.1228133,0.14582 z"
         id="path1030-2-0-3-0" />
      <path
         style="fill:#64b844;fill-opacity:1;stroke:#64b743;stroke-width:0.1253804px;stroke-linecap:butt;stroke-linejoin:miter;stroke-opacity:1"
         d="m 4.1622376,275.15377 c -0.603698,-1.36063 -1.539045,-1.58584 -2.756594,-0.84493 0.675239,1.33036 1.63158,1.45069 2.756594,0.84493 z"
         id="path1030-2-0-3-23" />
      <path
         style="fill:#64b844;fill-opacity:1;stroke:#64b743;stroke-width:0.12369243px;stroke-linecap:butt;stroke-linejoin:miter;stroke-opacity:1"
         d="m 6.7200747,280.1491 c 1.234286,-0.79563 1.311364,-1.74162 0.403778,-2.81555 -1.193891,0.86075 -1.165543,1.81123 -0.403778,2.81555 z"
         id="path1030-2-0-3-75" />
      <path
         style="fill:#64b844;fill-opacity:1;stroke:#64b743;stroke-width:0.12369243px;stroke-linecap:butt;stroke-linejoin:miter;stroke-opacity:1"
         d="m 13.278849,273.33833 c 1.37622,-0.51236 1.654422,-1.4198 0.998323,-2.66341 -1.350736,0.58463 -1.526928,1.51906 -0.998323,2.66341 z"
         id="path1030-2-0-3-7-9" />
      <path
         style="fill:#64b844;fill-opacity:1;stroke:#64b743;stroke-width:0.16146022px;stroke-linecap:butt;stroke-linejoin:miter;stroke-opacity:1"
         d="m 19.518468,273.26247 c 1.309989,-1.39942 1.107081,-2.62162 -0.383149,-3.69303 -1.23816,1.46905 -0.900344,2.66344 0.383149,3.69303 z"
         id="path1030-2-0-3-7-2" />
      <text
         xml:space="preserve"
         style="font-style:normal;font-weight:normal;font-size:4.67172718px;line-height:1.25;font-family:sans-serif;letter-spacing:0px;word-spacing:0px;fill:#000000;fill-opacity:1;stroke:none;stroke-width:0.3503795"
         x="28.211487"
         y="289.64459"
         id="text1264"><tspan
           id="tspan1262"
           x="28.211487"
           y="289.64459"
           style="font-style:normal;font-variant:normal;font-weight:bold;font-stretch:normal;font-size:3.7373817px;font-family:Roboto;-inkscape-font-specification:'Roboto Bold';stroke-width:0.3503795">CONSULTORIA E GESTÃO AMBIENTAL</tspan></text>
      <text
         xml:space="preserve"
         style="font-style:normal;font-weight:normal;font-size:11.69058895px;line-height:1.25;font-family:sans-serif;letter-spacing:0px;word-spacing:0px;fill:#000000;fill-opacity:1;stroke:none;stroke-width:0.8767941"
         x="28.210991"
         y="285.03677"
         id="text1268"><tspan
           id="tspan1266"
           x="28.210991"
           y="285.03677"
           style="font-style:normal;font-variant:normal;font-weight:bold;font-stretch:normal;font-family:Roboto;-inkscape-font-specification:'Roboto Bold';stroke-width:0.8767941">Daiana Silva</tspan></text>
      <path
         style="opacity:1;fill:url(#linearGradient1373);fill-opacity:1;stroke:none;stroke-width:0.43799999;stroke-linecap:square;stroke-linejoin:round;stroke-miterlimit:4;stroke-dasharray:none;stroke-opacity:1;paint-order:stroke fill markers"
         d="m 21.229182,272.35632 c -0.02914,2.49581 -2.46008,5.85284 -4.647899,8.54051 -0.610414,0.91467 -0.93617,1.98969 -0.936147,3.08935 -7.5e-5,3.07349 2.491318,5.56513 5.564788,5.56537 3.073693,8e-5 5.565431,-2.49167 5.565357,-5.56537 -3.3e-5,-1.09992 -0.325991,-2.17515 -0.936712,-3.08992 -1.839624,-2.6215 -4.559799,-5.55928 -4.609387,-8.53994 z"
         id="path926-0-0" />
      <path
         style="opacity:1;fill:url(#radialGradient2566-4);fill-opacity:1;stroke:none;stroke-width:3;stroke-linecap:square;stroke-linejoin:bevel;stroke-miterlimit:4;stroke-dasharray:none;stroke-opacity:1;paint-order:normal"
         d="m 21.244531,273.87539 c -0.02732,2.33986 -2.3229,4.86812 -4.374016,7.38786 -0.572274,0.85752 -0.877674,1.86536 -0.877654,2.89631 -7e-5,2.88144 2.335652,5.21739 5.21708,5.21762 2.881637,7e-5 5.217684,-2.33597 5.217614,-5.21762 -3.1e-5,-1.03118 -0.305623,-2.03923 -0.878184,-2.89685 -1.724678,-2.45769 -4.258351,-4.5929 -4.30484,-7.38732 z"
         id="path926-0" />
      <path
         style="fill:#004383;fill-opacity:1;stroke:none;stroke-width:0.28357208px;stroke-linecap:butt;stroke-linejoin:miter;stroke-opacity:1"
         d="m 23.746353,280.08573 c 0.02999,0.0243 0.05987,0.0491 0.08961,0.0744 1.917845,1.63518 3.259991,5.48072 1.01137,6.43057 -1.9109,0.40535 0.892816,-3.03673 -1.100981,-6.50501 z"
         id="path1276-7" />
      <path
         style="fill:#ffffff;stroke:none;stroke-width:0.25903076px;stroke-linecap:butt;stroke-linejoin:miter;stroke-opacity:1"
         d="m 23.874156,280.24744 c 1.750195,1.48779 2.818233,5.16607 1.007395,6.11305 -1.734101,0.54926 0.820373,-2.87195 -1.007395,-6.11305 z"
         id="path1276" />
    </g>
  </g>
</svg>
