<?xml version="1.0" encoding="UTF-8" standalone="no"?>
<!-- Created with Inkscape (http://www.inkscape.org/) -->

<svg
   xmlns:dc="http://purl.org/dc/elements/1.1/"
   xmlns:cc="http://creativecommons.org/ns#"
   xmlns:rdf="http://www.w3.org/1999/02/22-rdf-syntax-ns#"
   xmlns:svg="http://www.w3.org/2000/svg"
   xmlns="http://www.w3.org/2000/svg"
   xmlns:xlink="http://www.w3.org/1999/xlink"
   xmlns:sodipodi="http://sodipodi.sourceforge.net/DTD/sodipodi-0.dtd"
   xmlns:inkscape="http://www.inkscape.org/namespaces/inkscape"
   width="35mm"
   height="36mm"
   viewBox="0 0 35 36"
   version="1.1"
   id="svg8"
   inkscape:version="0.92.5 (2060ec1f9f, 2020-04-08)"
   sodipodi:docname="logo-imagem.svg">
  <defs
     id="defs2">
    <linearGradient
       id="linearGradient5084"
       inkscape:collect="always">
      <stop
         id="stop5078"
         offset="0"
         style="stop-color:#2794c2;stop-opacity:1" />
      <stop
         style="stop-color:#007fd4;stop-opacity:1"
         offset="0.69662964"
         id="stop5080" />
      <stop
         id="stop5082"
         offset="1"
         style="stop-color:#0000ff;stop-opacity:1" />
    </linearGradient>
    <linearGradient
       inkscape:collect="always"
       id="linearGradient970">
      <stop
         style="stop-color:#00ffff;stop-opacity:1"
         offset="0"
         id="stop964" />
      <stop
         id="stop966"
         offset="0.69662964"
         style="stop-color:#007fd4;stop-opacity:1" />
      <stop
         style="stop-color:#0000ff;stop-opacity:1"
         offset="1"
         id="stop968" />
    </linearGradient>
    <radialGradient
       inkscape:collect="always"
       xlink:href="#linearGradient970"
       id="radialGradient2566-4"
       cx="72.590454"
       cy="77.9561"
       fx="72.590454"
       fy="77.9561"
       r="5.0779839"
       gradientTransform="matrix(2.1558713,0.00970169,-0.01298879,2.8863206,-131.32998,58.527546)"
       gradientUnits="userSpaceOnUse" />
    <linearGradient
       inkscape:collect="always"
       xlink:href="#linearGradient5084"
       id="linearGradient1373"
       x1="13.329769"
       y1="107.44066"
       x2="13.180334"
       y2="91.025749"
       gradientUnits="userSpaceOnUse"
       gradientTransform="matrix(1.3049799,0,0,1.3049799,6.9756453,155.05042)" />
  </defs>
  <sodipodi:namedview
     id="base"
     pagecolor="#ffffff"
     bordercolor="#666666"
     borderopacity="1.0"
     inkscape:pageopacity="0.0"
     inkscape:pageshadow="2"
     inkscape:zoom="2"
     inkscape:cx="-15.526173"
     inkscape:cy="149.26001"
     inkscape:document-units="mm"
     inkscape:current-layer="layer1"
     showgrid="false"
     inkscape:pagecheckerboard="true"
     inkscape:window-width="2560"
     inkscape:window-height="1340"
     inkscape:window-x="0"
     inkscape:window-y="0"
     inkscape:window-maximized="1"
     showguides="false"
     units="mm" />
  <metadata
     id="metadata5">
    <rdf:RDF>
      <cc:Work
         rdf:about="">
        <dc:format>image/svg+xml</dc:format>
        <dc:type
           rdf:resource="http://purl.org/dc/dcmitype/StillImage" />
        <dc:title></dc:title>
      </cc:Work>
    </rdf:RDF>
  </metadata>
  <g
     inkscape:label="Camada 1"
     inkscape:groupmode="layer"
     id="layer1"
     transform="translate(0,-261)">
    <path
       style="fill:#692510;fill-opacity:1;stroke:#692510;stroke-width:0;stroke-linecap:round;stroke-linejoin:miter;stroke-miterlimit:4;stroke-dasharray:none;stroke-opacity:1"
       d="m 29.7772,290.64146 c -1.154159,3.10109 -6.636203,5.66143 -10.704781,1.11112 -5.604309,-6.75288 -2.197268,-17.76784 3.116582,-22.49357 -0.698143,0.40416 -5.41691,1.81041 -7.832105,11.21968 -0.920047,-3.50472 -0.84909,-7.35413 -0.108398,-11.43649 -1.915247,3.60549 -2.195636,7.6878 -2.411966,11.7888 -3.0393647,-2.49608 -4.5975897,-2.81402 -6.4770667,-3.60439 3.262591,1.94794 5.8124147,4.82216 6.3144627,6.69387 4.541588,16.21288 16.437284,13.58867 18.103272,6.72098 z"
       id="path1004"
       inkscape:connector-curvature="0"
       sodipodi:nodetypes="ccccccccc" />
    <path
       style="fill:#a5c639;fill-opacity:1;stroke:#a5c639;stroke-width:0.30660951px;stroke-linecap:butt;stroke-linejoin:miter;stroke-opacity:1"
       d="m 21.34888,268.60859 c 3.445125,-1.17542 4.196534,-3.40489 2.65587,-6.53128 -3.386924,1.35625 -3.887419,3.65959 -2.65587,6.53128 z"
       id="path1030"
       inkscape:connector-curvature="0"
       sodipodi:nodetypes="ccc" />
    <path
       style="fill:#a5c639;fill-opacity:1;stroke:#a5c639;stroke-width:0.23671234px;stroke-linecap:butt;stroke-linejoin:miter;stroke-opacity:1"
       d="m 22.686838,269.69396 c 2.122597,1.94747 3.974258,1.73757 5.595388,-0.30805 -2.227981,-1.85001 -4.037296,-1.44697 -5.595388,0.30805 z"
       id="path1030-3"
       inkscape:connector-curvature="0"
       sodipodi:nodetypes="ccc"
       inkscape:transform-center-x="0.1259456"
       inkscape:transform-center-y="0.16174785" />
    <path
       style="fill:#a5c639;fill-opacity:1;stroke:#a5c639;stroke-width:0.24541545px;stroke-linecap:butt;stroke-linejoin:miter;stroke-opacity:1"
       d="m 13.486197,269.42806 c 0.284189,-2.99683 -1.042518,-4.3308 -3.7399307,-4.24989 -0.138145,3.01539 1.3215047,4.18611 3.7399307,4.24989 z"
       id="path1030-6"
       inkscape:connector-curvature="0"
       sodipodi:nodetypes="ccc" />
    <path
       style="fill:#a5c639;fill-opacity:1;stroke:#a5c639;stroke-width:0.2061433px;stroke-linecap:butt;stroke-linejoin:miter;stroke-opacity:1"
       d="m 7.5737453,276.81838 c 0.883274,-2.05673 -0.110334,-3.22187 -2.70097,-3.62837 -0.747699,2.09487 0.406119,3.16813 2.70097,3.62837 z"
       id="path1030-7"
       inkscape:connector-curvature="0"
       sodipodi:nodetypes="ccc" />
    <path
       style="fill:#a5c639;fill-opacity:1;stroke:#a5c639;stroke-width:0.25330353px;stroke-linecap:butt;stroke-linejoin:miter;stroke-opacity:1"
       d="m 6.9170183,278.81773 c -2.568982,-1.59841 -4.422507,-0.94572 -5.667255,1.62243 2.657112,1.46957 4.42806,0.61953 5.667255,-1.62243 z"
       id="path1030-5"
       inkscape:connector-curvature="0"
       sodipodi:nodetypes="ccc" />
    <path
       style="fill:#a5c639;fill-opacity:1;stroke:#a5c639;stroke-width:0.13615799px;stroke-linecap:butt;stroke-linejoin:miter;stroke-opacity:1"
       d="m 9.7846753,275.39978 c 1.6699557,-0.0357 2.3019807,-0.85191 2.0508347,-2.3323 -1.668982,0.11731 -2.2010257,0.99627 -2.0508347,2.3323 z"
       id="path1030-35"
       inkscape:connector-curvature="0"
       sodipodi:nodetypes="ccc" />
    <path
       style="fill:#a5c639;fill-opacity:1;stroke:#a5c639;stroke-width:0.11441129px;stroke-linecap:butt;stroke-linejoin:miter;stroke-opacity:1"
       d="m 19.145827,275.4988 c 1.207969,-0.62115 1.364214,-1.48504 0.625551,-2.55548 -1.176656,0.68473 -1.236255,1.56226 -0.625551,2.55548 z"
       id="path1030-1"
       inkscape:connector-curvature="0"
       sodipodi:nodetypes="ccc" />
    <path
       style="fill:#a5c639;fill-opacity:1;stroke:#a5c639;stroke-width:0.0876391px;stroke-linecap:butt;stroke-linejoin:miter;stroke-opacity:1"
       d="m 14.70695,271.01843 c 0.935661,0.45509 1.536971,0.15399 1.853781,-0.79053 -0.960258,-0.40668 -1.525528,-0.0401 -1.853781,0.79053 z"
       id="path1030-2"
       inkscape:connector-curvature="0"
       sodipodi:nodetypes="ccc" />
    <path
       style="fill:#a5c639;fill-opacity:1;stroke:#a5c639;stroke-width:0.07430017px;stroke-linecap:butt;stroke-linejoin:miter;stroke-opacity:1"
       d="m 17.095086,272.07584 c 0.880319,0.0561 1.255178,-0.37349 1.199942,-1.21629 -0.884046,-0.0104 -1.20957,0.45916 -1.199942,1.21629 z"
       id="path1030-2-7"
       inkscape:connector-curvature="0"
       sodipodi:nodetypes="ccc" />
    <path
       style="fill:#a5c639;fill-opacity:1;stroke:#a5c639;stroke-width:0.14333963px;stroke-linecap:butt;stroke-linejoin:miter;stroke-opacity:1"
       d="m 15.084337,269.09353 c 1.480443,0.83921 2.492978,0.40964 3.107368,-1.0995 -1.525575,-0.76271 -2.486028,-0.22252 -3.107368,1.0995 z"
       id="path1030-2-0"
       inkscape:connector-curvature="0"
       sodipodi:nodetypes="ccc" />
    <path
       style="fill:#a5c639;fill-opacity:1;stroke:#a5c639;stroke-width:0.09149389px;stroke-linecap:butt;stroke-linejoin:miter;stroke-opacity:1"
       d="m 18.769875,268.48249 c 0.368413,1.02185 1.037469,1.23457 1.962334,0.75882 -0.422068,-1.00355 -1.111874,-1.14102 -1.962334,-0.75882 z"
       id="path1030-2-0-9"
       inkscape:connector-curvature="0"
       sodipodi:nodetypes="ccc" />
    <path
       style="fill:#64b844;fill-opacity:1;stroke:#64b743;stroke-width:0.24312173px;stroke-linecap:butt;stroke-linejoin:miter;stroke-opacity:1"
       d="m 14.618349,267.76566 c 2.519475,-0.77327 3.189095,-2.67517 2.284674,-5.53741 -2.489125,0.93651 -2.984948,2.92218 -2.284674,5.53741 z"
       id="path1030-2-0-3"
       inkscape:connector-curvature="0"
       sodipodi:nodetypes="ccc" />
    <path
       style="fill:#64b844;fill-opacity:1;stroke:#64b743;stroke-width:0.11075865px;stroke-linecap:butt;stroke-linejoin:miter;stroke-opacity:1"
       d="m 10.565053,278.62361 c 0.499787,-1.21625 0.07232,-1.95081 -1.1441447,-2.27549 -0.436781,1.24345 0.07045,1.92735 1.1441447,2.27549 z"
       id="path1030-2-0-3-7"
       inkscape:connector-curvature="0"
       sodipodi:nodetypes="ccc" />
    <path
       style="fill:#64b844;fill-opacity:1;stroke:#64b743;stroke-width:0.11657092px;stroke-linecap:butt;stroke-linejoin:miter;stroke-opacity:1"
       d="m 20.087557,267.70493 c 0.431377,-1.31501 -0.07363,-2.05328 -1.375432,-2.30082 -0.363156,1.3387 0.221706,2.0177 1.375432,2.30082 z"
       id="path1030-2-0-3-9"
       inkscape:connector-curvature="0"
       sodipodi:nodetypes="ccc" />
    <path
       style="fill:#64b844;fill-opacity:1;stroke:#64b743;stroke-width:0.11152004px;stroke-linecap:butt;stroke-linejoin:miter;stroke-opacity:1"
       d="m 24.594058,267.40684 c 1.276044,0.35306 1.958828,-0.16276 2.136808,-1.41791 -1.295625,-0.2868 -1.918164,0.30265 -2.136808,1.41791 z"
       id="path1030-2-0-3-2"
       inkscape:connector-curvature="0"
       sodipodi:nodetypes="ccc" />
    <path
       style="fill:#64b844;fill-opacity:1;stroke:#64b743;stroke-width:0.25826538px;stroke-linecap:butt;stroke-linejoin:miter;stroke-opacity:1"
       d="m 12.369681,271.06433 c -1.94358,-2.37148 -3.9242627,-2.30673 -5.9365157,-0.16898 2.069082,2.27222 4.0340427,1.9877 5.9365157,0.16898 z"
       id="path1030-2-0-3-0"
       inkscape:connector-curvature="0"
       sodipodi:nodetypes="ccc"
       inkscape:transform-center-x="-0.088360324"
       inkscape:transform-center-y="-0.22775698" />
    <path
       style="fill:#64b844;fill-opacity:1;stroke:#64b743;stroke-width:0.14529572px;stroke-linecap:butt;stroke-linejoin:miter;stroke-opacity:1"
       d="m 4.3972653,276.90008 c -0.699588,-1.57675 -1.783505,-1.83773 -3.194449,-0.97914 0.782494,1.54168 1.890739,1.68112 3.194449,0.97914 z"
       id="path1030-2-0-3-23"
       inkscape:connector-curvature="0"
       sodipodi:nodetypes="ccc" />
    <path
       style="fill:#64b844;fill-opacity:1;stroke:#64b743;stroke-width:0.14333963px;stroke-linecap:butt;stroke-linejoin:miter;stroke-opacity:1"
       d="m 7.3613873,282.68887 c 1.430339,-0.92201 1.51966,-2.01826 0.467914,-3.26277 -1.383528,0.99747 -1.350677,2.09892 -0.467914,3.26277 z"
       id="path1030-2-0-3-75"
       inkscape:connector-curvature="0"
       sodipodi:nodetypes="ccc" />
    <path
       style="fill:#64b844;fill-opacity:1;stroke:#64b743;stroke-width:0.14333963px;stroke-linecap:butt;stroke-linejoin:miter;stroke-opacity:1"
       d="m 14.961951,274.79628 c 1.594818,-0.59374 1.917209,-1.64532 1.156896,-3.08646 -1.565286,0.67749 -1.769464,1.76034 -1.156896,3.08646 z"
       id="path1030-2-0-3-7-9"
       inkscape:connector-curvature="0"
       sodipodi:nodetypes="ccc" />
    <path
       style="fill:#64b844;fill-opacity:1;stroke:#64b743;stroke-width:0.18710643px;stroke-linecap:butt;stroke-linejoin:miter;stroke-opacity:1"
       d="m 22.192666,274.70837 c 1.518067,-1.6217 1.282929,-3.03804 -0.444008,-4.27963 -1.434828,1.70239 -1.043354,3.0865 0.444008,4.27963 z"
       id="path1030-2-0-3-7-2"
       inkscape:connector-curvature="0"
       sodipodi:nodetypes="ccc" />
    <text
       xml:space="preserve"
       style="font-style:normal;font-weight:normal;font-size:10.58333302px;line-height:1.25;font-family:sans-serif;letter-spacing:0px;word-spacing:0px;fill:#000000;fill-opacity:1;stroke:none;stroke-width:0.26458332"
       x="107.61927"
       y="69.722916"
       id="text1260"><tspan
         sodipodi:role="line"
         id="tspan1258"
         x="107.61927"
         y="79.255898"
         style="stroke-width:0.26458332" /></text>
    <path
       style="opacity:1;fill:url(#linearGradient1373);fill-opacity:1;stroke:none;stroke-width:0.52199191;stroke-linecap:square;stroke-linejoin:bevel;stroke-miterlimit:4;stroke-dasharray:none;stroke-opacity:1;paint-order:normal"
       d="m 24.175715,273.83717 c -0.0347,2.97191 -2.929365,6.50985 -5.534533,9.71021 -0.726856,1.08916 -1.114753,2.36925 -1.114725,3.67868 -9e-5,3.65979 2.966561,6.62673 6.626326,6.62702 3.66003,9e-5 6.627092,-2.96698 6.627003,-6.62702 -3.8e-5,-1.30974 -0.388176,-2.59009 -1.115399,-3.67935 -2.19055,-3.12158 -5.429625,-6.1603 -5.488672,-9.70954 z"
       id="path926-0-0"
       inkscape:connector-curvature="0"
       sodipodi:nodetypes="ccccccc" />
    <path
       style="opacity:1;fill:url(#radialGradient2566-4);fill-opacity:1;stroke:none;stroke-width:0.47625729;stroke-linecap:square;stroke-linejoin:bevel;stroke-miterlimit:4;stroke-dasharray:none;stroke-opacity:1;paint-order:normal"
       d="m 24.173733,275.12053 c -0.03166,2.71153 -2.672705,5.93948 -5.049618,8.85946 -0.663174,0.99373 -1.017083,2.16165 -1.01706,3.35636 -8.1e-5,3.33912 2.706645,6.04611 6.045757,6.04638 3.339353,8e-5 6.046456,-2.70702 6.046375,-6.04638 -3.6e-5,-1.19498 -0.354168,-2.36314 -1.017674,-3.35699 -1.998624,-2.84807 -4.953906,-5.62054 -5.00778,-8.85883 z"
       id="path926-0"
       inkscape:connector-curvature="0"
       sodipodi:nodetypes="ccccccc" />
    <path
       style="fill:#004383;fill-opacity:1;stroke:none;stroke-width:0.32861444px;stroke-linecap:butt;stroke-linejoin:miter;stroke-opacity:1"
       d="m 27.092105,282.61543 c 0.03475,0.0282 0.06938,0.0569 0.103844,0.0862 2.222474,1.89491 3.777805,6.35127 1.172015,7.452 -2.214426,0.46973 1.03463,-3.51909 -1.27586,-7.53827 z"
       id="path1276-7"
       inkscape:connector-curvature="0"
       sodipodi:nodetypes="cscc" />
    <path
       style="fill:#ffffff;stroke:none;stroke-width:0.30660951px;stroke-linecap:butt;stroke-linejoin:miter;stroke-opacity:1"
       d="m 27.240208,282.80283 c 2.071671,1.76106 3.335886,6.11497 1.192433,7.23589 -2.05262,0.65015 0.97106,-3.39946 -1.192433,-7.23589 z"
       id="path1276"
       inkscape:connector-curvature="0"
       sodipodi:nodetypes="ccc" />
  </g>
</svg>
